<svg xmlns="http://www.w3.org/2000/svg" viewBox="0 0 512 512">
  <path fill="#e11d48" d="M96 0C78.3 0 64 14.3 64 32v384c0 35.3 28.7 64 64 64h64c35.3 0 64-28.7 64-64V32c0-17.7-14.3-32-32-32H96zM32 416h32v32c0 17.7 14.3 32 32 32h64c17.7 0 32-14.3 32-32v-32h32c17.7 0 32 14.3 32 32v32c0 35.3-28.7 64-64 64H128c-35.3 0-64-28.7-64-64V448c0-17.7 14.3-32 32-32z"/>
  <!-- Simple Bat Shape for Favicon -->
  <path fill="#e11d48" d="M352 128l-64 64 128 128 64-64-128-128zm-96 96l-32 32 48 48 32-32-48-48zm-48 64l-32 32 16 16 16-16 32-32z"/>
  <!-- More recognizable bat icon -->
  <path d="M439.6 88.7L325.2 203.1c-4.5 4.5-12.2 2.8-14.4-3.2l-11.4-31.3c-1.3-3.6-5.8-4.5-8.4-1.9l-49.7 49.7c-2.6 2.6-1.7 7.1 1.9 8.4l31.3 11.4c6 2.2 7.7 9.9 3.2 14.4L163.3 365c-15.6 15.6-15.6 40.9 0 56.6l31.1 31.1c15.6 15.6 40.9 15.6 56.6 0l188.6-188.6c15.6-15.6 15.6-40.9 0-56.6l-28.3-28.3c-15.7-15.7-41-15.7-56.7 0zM128 416L96 448c-17.7 17.7-46.3 17.7-64 0s-17.7-46.3 0-64l32-32 64 64z" fill="#e11d48"/>
</svg>
