<svg width="100" height="100" viewBox="0 0 100 100" fill="none" xmlns="http://www.w3.org/2000/svg">
<rect width="100" height="100" rx="28" fill="#D6002A"/>
<path d="M57.4264 36.3195L51.9897 41.7562C50.6874 43.0585 50.6874 45.1702 51.9897 46.4725L61.4223 55.9051C62.7246 57.2075 64.8363 57.2075 66.1386 55.9051L71.5753 50.4684C72.8776 49.1661 72.8776 47.0544 71.5753 45.7521L62.1427 36.3195C60.8404 35.0172 58.7287 35.0172 57.4264 36.3195Z" fill="#5E5896"/>
<path d="M54.5962 44.3627L58.8288 48.5954L43.7345 63.6896C41.1299 66.2942 37.9962 68.3603 34.5147 69.7686L34.2541 69.8739C33.1983 70.3015 32.0253 69.8378 31.4283 68.8329V68.8329C30.8312 67.8281 31.0254 66.5562 31.8687 65.7513C33.5186 64.1772 35.5317 62.9723 37.7854 62.2036L38.0772 62.1042C40.6698 61.2201 42.9904 59.7825 44.9765 57.8643L54.5962 44.3627Z" fill="#FFCBA5"/>
<path d="M37.7854 62.2031L38.0772 62.1037C40.6697 61.2195 42.9903 59.782 44.9765 57.8637L48.2439 53.2801L42.1122 59.4117C39.5076 62.0163 36.374 64.0825 32.8924 65.4907L32.6318 65.5961C31.576 66.0236 30.4031 65.56 29.806 64.5551V64.5551C29.209 63.5503 29.4031 62.2783 30.2465 61.4735C31.8964 59.8994 33.9094 58.6944 36.1632 57.9258" fill="#FB92B2"/>
<circle cx="58.5" cy="62.5" r="4.5" fill="white"/>
<path d="M58.5 65C59.8807 65 61 63.8807 61 62.5C61 61.1193 59.8807 60 58.5 60" fill="#FF4F6D"/>
</svg>
